<svg width="39" height="38" viewBox="0 0 39 38" fill="none" xmlns="http://www.w3.org/2000/svg">
<path d="M32.4639 31.6192H26.8186V23.0202C26.8186 20.9697 26.7809 18.3301 23.8824 18.3301C20.9421 18.3301 20.4922 20.5642 20.4922 22.8709V31.6186H14.8468V13.9356H20.2663V16.3522H20.3422C20.8846 15.4502 21.6683 14.7082 22.61 14.2052C23.5516 13.7022 24.6159 13.457 25.6895 13.4958C31.4113 13.4958 32.4663 17.1564 32.4663 21.9186L32.4639 31.6192ZM8.4769 11.5185C7.82895 11.5186 7.1955 11.3318 6.65669 10.9818C6.11787 10.6317 5.69791 10.1342 5.44984 9.55195C5.20177 8.96975 5.13676 8.32907 5.26305 7.71094C5.38935 7.09281 5.70127 6.52499 6.15936 6.07927C6.61745 5.63356 7.20114 5.32998 7.83661 5.20692C8.47209 5.08386 9.1308 5.14685 9.72948 5.38792C10.3281 5.62898 10.8399 6.03731 11.2 6.56125C11.56 7.0852 11.7523 7.70123 11.7524 8.33145C11.7525 8.7499 11.6678 9.16427 11.5032 9.55089C11.3387 9.93752 11.0974 10.2888 10.7933 10.5848C10.4891 10.8807 10.128 11.1155 9.73055 11.2757C9.33311 11.4359 8.90712 11.5184 8.4769 11.5185ZM11.2996 31.6192H5.64832V13.9356H11.2996V31.6192ZM35.2784 0.0464701H2.81153C2.07462 0.0383817 1.36452 0.315179 0.837335 0.816036C0.310146 1.31689 0.00899354 2.00083 0 2.71757V34.427C0.00868573 35.1441 0.309662 35.8285 0.836833 36.3299C1.364 36.8312 2.07426 37.1086 2.81153 37.101H35.2784C36.0171 37.11 36.7294 36.8334 37.2586 36.3321C37.7879 35.8307 38.0909 35.1455 38.1011 34.427V2.71528C38.0906 1.99713 37.7874 1.31241 37.2581 0.811561C36.7288 0.310716 36.0168 0.0347097 35.2784 0.0441813" fill="white"/>
</svg>
