<svg width="56" height="28" viewBox="0 0 56 28" fill="none" xmlns="http://www.w3.org/2000/svg">
<g clip-path="url(#clip0_176_28)">
<path d="M56 26V28H48.25C50.55 26.73 53.19 26 56 26ZM30 28C30 27.4696 29.7893 26.9609 29.4142 26.5858C29.0391 26.2107 28.5304 26 28 26C27.4696 26 26.9609 26.2107 26.5858 26.5858C26.2107 26.9609 26 27.4696 26 28H21.91C19.5605 24.3198 16.3214 21.2912 12.492 19.1938C8.6625 17.0964 4.3662 15.998 0 16L0 14C0.67 14 1.34 14.02 2 14.07V14C2 13.4696 1.78929 12.9609 1.41421 12.5858C1.03914 12.2107 0.530433 12 0 12L0 10C0.991623 10 1.9479 10.3683 2.68331 11.0335C3.41872 11.6987 3.88084 12.6134 3.98 13.6C4.80224 12.2363 5.73894 10.945 6.78 9.74002C6.05884 8.59371 5.05847 7.64923 3.87263 6.99509C2.68679 6.34096 1.35429 5.99857 0 6.00002L0 4.00002C1.60111 3.99878 3.17907 4.3824 4.60092 5.11856C6.02276 5.85472 7.24684 6.92184 8.17 8.23002C9.11 7.28002 10.13 6.40002 11.2 5.60002C9.89702 3.86012 8.20627 2.44804 6.26205 1.47593C4.31783 0.503815 2.17371 -0.00153336 0 2.17855e-05H7.75C9.75 1.10002 11.48 2.63002 12.85 4.45002C13.97 3.73002 15.15 3.08002 16.38 2.52002C15.7498 1.62421 15.0475 0.781404 14.28 2.17855e-05H16.98C17.43 0.560022 17.86 1.14002 18.27 1.74002C19.57 1.26002 20.9 0.870022 22.27 0.590022C22.16 0.390022 22.04 0.190022 21.91 2.17855e-05H26V0.0700218C27.3317 -0.0239916 28.6683 -0.0239916 30 0.0700218V2.17855e-05H34.09L33.72 0.590022C35.1 0.870022 36.44 1.26002 37.73 1.74002C38.13 1.14002 38.57 0.560022 39.03 2.17855e-05H41.72C40.9525 0.781404 40.2502 1.62421 39.62 2.52002C40.85 3.08002 42.03 3.72002 43.16 4.45002C44.5221 2.62273 46.2571 1.10587 48.25 2.17855e-05H56C51.42 2.17855e-05 47.35 2.20002 44.8 5.60002C45.87 6.40002 46.89 7.28002 47.83 8.23002C48.7532 6.92184 49.9772 5.85472 51.3991 5.11856C52.8209 4.3824 54.3989 3.99878 56 4.00002V6.00002C54.6474 6.00027 53.3169 6.34346 52.133 6.99751C50.949 7.65157 49.9503 8.59514 49.23 9.74002C50.26 10.94 51.2 12.24 52.02 13.6C52.1192 12.6134 52.5813 11.6987 53.3167 11.0335C54.0521 10.3683 55.0084 10 56 10V12C55.7314 11.9999 55.4654 12.0538 55.2181 12.1587C54.9708 12.2635 54.7471 12.4171 54.5605 12.6103C54.3738 12.8035 54.228 13.0324 54.1317 13.2831C54.0354 13.5339 53.9906 13.8015 54 14.07C54.6656 14.0232 55.3327 13.9999 56 14V16C46.8 16 38.7 20.78 34.09 28H30ZM7.75 28H0V26C2.81 26 5.46 26.73 7.75 28ZM56 20V22C50.4 22 45.35 24.3 41.72 28H39.02C43.06 23.11 49.17 20 56 20ZM16.97 28H14.28C10.65 24.3 5.6 22 0 22V20C6.83 20 12.94 23.11 16.97 28ZM31.98 27.6C32.8022 26.2363 33.7389 24.945 34.78 23.74C34.06 22.5934 33.0607 21.6482 31.8757 20.9931C30.6908 20.338 29.359 19.9944 28.005 19.9944C26.651 19.9944 25.3192 20.338 24.1343 20.9931C22.9493 21.6482 21.95 22.5934 21.23 23.74C22.26 24.94 23.2 26.24 24.02 27.6C24.119 26.6133 24.5811 25.6985 25.3165 25.0332C26.052 24.3679 27.0083 23.9995 28 23.9995C28.9917 23.9995 29.948 24.3679 30.6835 25.0332C31.4189 25.6985 31.881 26.6133 31.98 27.6V27.6ZM46.27 15.74C47.57 15.26 48.9 14.87 50.27 14.59C47.9596 10.7466 44.694 7.56643 40.7907 5.35861C36.8875 3.1508 32.4794 1.99048 27.995 1.99048C23.5106 1.99048 19.1025 3.1508 15.1993 5.35861C11.296 7.56643 8.03043 10.7466 5.72 14.59C7.1 14.87 8.44 15.26 9.73 15.74C11.7386 12.7369 14.4565 10.2753 17.6432 8.57294C20.8299 6.87057 24.3871 5.97999 28 5.97999C31.6129 5.97999 35.1701 6.87057 38.3568 8.57294C41.5435 10.2753 44.2614 12.7369 46.27 15.74ZM40.84 18.45C41.97 17.73 43.14 17.08 44.38 16.52C42.5385 13.8835 40.0878 11.7305 37.2361 10.2439C34.3844 8.75729 31.2159 7.981 28 7.981C24.7841 7.981 21.6156 8.75729 18.7639 10.2439C15.9122 11.7305 13.4615 13.8835 11.62 16.52C12.85 17.08 14.03 17.72 15.16 18.45C16.6463 16.444 18.5819 14.814 20.8117 13.691C23.0414 12.5679 25.5034 11.9829 28 11.9829C30.4966 11.9829 32.9586 12.5679 35.1883 13.691C37.4181 14.814 39.3537 16.444 40.84 18.45V18.45ZM36.17 22.23C37.11 21.28 38.13 20.4 39.2 19.6C37.8984 17.8577 36.2083 16.443 34.264 15.4685C32.3197 14.4941 30.1748 13.9866 28 13.9866C25.8252 13.9866 23.6803 14.4941 21.736 15.4685C19.7917 16.443 18.1016 17.8577 16.8 19.6C17.87 20.4 18.89 21.28 19.83 22.23C20.752 20.9198 21.9755 19.8506 23.3974 19.1124C24.8193 18.3743 26.3979 17.989 28 17.989C29.6021 17.989 31.1807 18.3743 32.6026 19.1124C34.0245 19.8506 35.248 20.9198 36.17 22.23Z" fill="#F5F5F5"/>
</g>
<defs>
<clipPath id="clip0_176_28">
<rect width="56" height="28" fill="white"/>
</clipPath>
</defs>
</svg>
